Coordinates
version=1
nRows=19
nColumns=36
inDegrees=yes

Units are S.I. units (second, meters, Newtons, ...)
If the header above contains a line with 'inDegrees', this indicates whether rotational values are in degrees (yes) or radians (no).

endheader
time	pelvis_tilt	pelvis_list	pelvis_rotation	pelvis_tx	pelvis_ty	pelvis_tz	hip_flexion_r	hip_adduction_r	hip_rotation_r	knee_angle_r	knee_angle_r_beta	ankle_angle_r	subtalar_angle_r	mtp_angle_r	hip_flexion_l	hip_adduction_l	hip_rotation_l	knee_angle_l	knee_angle_l_beta	ankle_angle_l	subtalar_angle_l	mtp_angle_l	lumbar_extension	lumbar_bending	lumbar_rotation	arm_flex_r	arm_add_r	arm_rot_r	elbow_flex_r	pro_sup_r	arm_flex_l	arm_add_l	arm_rot_l	elbow_flex_l	pro_sup_l
      0.00000000	      4.40062218	     -0.21873569	      8.74924597	      0.59416507	      0.89496558	     -0.01319989	     -1.82550458	     -6.76036698	     -3.32119314	      7.25252793	      0.12658049	      3.21743327	    -11.09570557	     -6.47314269	     -3.01450329	     -8.20046334	     -7.20599051	      6.08651403	      0.10622971	      8.84705547	     -5.66195071	     -6.47314269	     -4.96303263	      0.68461152	     -0.23373593	     37.06304880	      4.89016061	     68.52603777	    124.36272760	    108.62759642	     40.53200759	      3.78572251	     59.93424330	    119.03582149	    103.33499905
      0.01666670	      2.34687422	     -1.07926110	      7.93445072	      0.59712519	      0.89241096	     -0.01358808	      1.45519554	     -6.28859259	     -2.36191696	      8.53098720	      0.14889382	      5.21141124	    -10.87718116	     -6.70885774	     -0.16602971	     -8.70379990	     -8.91336894	      6.45005528	      0.11257470	      9.00103438	     -5.17966805	     -6.70885774	     -2.04425055	      1.77987585	     -0.38790817	     36.37264921	      5.24797025	     70.46947085	    126.68306231	    107.92224289	     39.86484548	      2.33857551	     60.42637330	    123.72637643	     98.87457123
      0.03333330	      1.58494190	     -0.81003932	      6.84468705	      0.60323293	      0.89242123	     -0.00943512	      1.98197075	     -6.67361573	     -1.74623390	      8.00303685	      0.13967934	      4.66600483	    -11.05785287	     -6.73256101	      0.09270868	     -8.64592187	    -10.75658044	      5.93850679	      0.10364650	      8.33148170	     -4.34670242	     -6.73256101	     -1.00544409	      1.33382922	      0.88607111	     34.86905759	      5.08809001	     71.17942883	    126.35021412	    107.67509746	     38.85721708	      1.58657858	     60.35851387	    126.06851953	     97.94419510
      0.05000000	      1.46391413	     -0.43583524	      6.34605943	      0.60350406	      0.89225559	     -0.00915873	      1.78620373	     -7.09725311	     -1.47559992	      7.41155576	      0.12935605	      4.80523086	    -11.00848524	     -7.10534850	     -0.69069029	     -8.27497493	    -11.78294933	      4.85079070	      0.08466227	      8.01668709	     -3.76621966	     -7.10534850	     -0.73081429	      0.84957934	      1.81681366	     33.91727401	      5.26881592	     71.59328468	    124.74866894	    104.52508307	     38.59750227	      1.66951750	     60.93803030	    126.52141893	     89.56344799
      0.06666670	      1.31143692	     -0.27700715	      5.79238872	      0.60364911	      0.89218312	     -0.00900693	      1.61132610	     -7.22720958	     -0.86403452	      6.63466501	      0.11579675	      4.67409053	    -11.17305922	     -7.16176560	     -1.35524238	     -8.04106162	    -12.21785858	      3.69800422	      0.06454235	      7.56385794	     -3.67408827	     -7.16176560	     -0.28832881	      0.88053296	      2.54108408	     33.68567857	      5.31194246	     71.84377923	    123.30076679	    101.97634128	     38.34666766	      1.94452461	     61.51558153	    126.62042423	     87.29744464
      0.08333330	      1.10696821	     -0.12691070	      5.34636482	      0.60374587	      0.89209736	     -0.00881768	      1.41350658	     -7.35279357	     -0.40782121	      5.79169194	      0.10108409	      4.27690201	    -11.53109133	     -7.20124774	     -1.71556906	     -7.77349992	    -12.49133957	      2.93321830	      0.05119432	      7.46524901	     -3.30871812	     -7.20124774	      0.17211891	      0.83714114	      2.99690680	     33.18909115	      5.46858728	     71.77876681	    122.15940836	    100.17552181	     38.00789578	      2.26157154	     61.86117219	    126.63083051	     85.09764683
      0.10000000	      0.92506097	     -0.01174943	      4.95789866	      0.60419810	      0.89453191	     -0.00836074	      1.32571898	     -7.46131714	      0.08172937	      4.99976538	      0.08726237	      4.15905760	    -11.53534336	     -7.25164872	     -1.98653510	     -7.54153044	    -12.59588981	      2.33112870	      0.04068587	      7.34180575	     -3.02617984	     -7.25164872	      0.58328247	      0.87127440	      3.23918832	     32.77289296	      5.53986011	     71.63485296	    121.28467167	     97.61080611	     37.54942755	      2.28359002	     62.02738658	    126.51502221	     81.85858517
      0.11666670	      0.89157709	      0.01730288	      4.68350829	      0.60403873	      0.89409306	     -0.00826754	      1.27360693	     -7.44062292	      0.65617442	      4.60729453	      0.08041246	      3.74807734	    -11.96222491	     -7.34848299	     -2.27878940	     -7.43108784	    -12.73293737	      1.92203581	      0.03354585	      7.28318152	     -2.62304758	     -7.34848299	      0.76686255	      0.92700107	      3.38540252	     32.61248157	      5.61953557	     71.30341310	    120.76935973	     96.26009782	     37.36129111	      2.28611306	     61.99004525	    126.13896631	     76.60847114
      0.13333330	      0.84697601	      0.04929136	      4.52526818	      0.60372309	      0.89130728	     -0.00822153	      1.19630462	     -7.46687945	      1.04572674	      4.22772436	      0.07378771	      3.53402023	    -12.27150206	     -7.38495224	     -2.42016157	     -7.34055764	    -12.72524611	      1.67796955	      0.02928609	      7.28072291	     -2.44512585	     -7.38495224	      0.85580399	      0.97738075	      3.46408253	     32.57694627	      5.74856202	     71.06691122	    120.66158656	     91.90052428	     37.31165516	      2.32531600	     61.61798797	    126.14266454	     73.95919986
      0.15000000	      0.80985842	      0.07934257	      4.38617573	      0.60396650	      0.89393842	     -0.00808353	      1.21386579	     -7.50111191	      1.39489973	      4.15331286	      0.07248898	      3.44171721	    -12.33609485	     -7.44074518	     -2.55084673	     -7.27106013	    -12.70191759	      1.47667241	      0.02577280	      7.17846814	     -2.29788869	     -7.44074518	      0.87966582	      0.96342063	      3.58160248	     32.13238495	      5.70341494	     70.33302994	    120.38730729	     94.12132677	     37.19624097	      2.39631836	     61.29358121	    125.97505449	     72.66871626
      0.16666670	      0.82246226	      0.04824230	      4.32444502	      0.60374548	      0.89116727	     -0.00813832	      1.35131127	     -7.49308325	      1.69585129	      4.49976787	      0.07853576	      3.42019884	    -12.59900503	     -7.48208726	     -2.65249467	     -7.27868477	    -12.79642277	      1.37879022	      0.02406443	      7.14950700	     -2.31892655	     -7.48208726	      0.80675911	      1.00526070	      3.49098602	     32.22570170	      5.63334959	     70.01644299	    120.43194626	     93.27600908	     37.20333842	      2.58506301	     61.02372573	    125.92372955	     71.56707757
      0.18333330	      0.86843666	      0.05642238	      4.29077071	      0.60362610	      0.89130543	     -0.00823636	      1.32716359	     -7.52748217	      1.88785590	      4.65661962	      0.08127334	      3.58343234	    -12.53201529	     -7.48658057	     -2.78392403	     -7.27608360	    -12.79152947	      1.30166003	      0.02271825	      6.98869095	     -2.38842618	     -7.48658057	      0.78346045	      1.02548825	      3.49641625	     32.43626177	      5.64044068	     69.89360432	    120.55991878	     88.62015101	     37.06441784	      2.72777624	     61.05895335	    126.13811821	     69.74047779
      0.20000000	      0.79551933	      0.00825120	      4.22549158	      0.60377381	      0.89135992	     -0.00809874	      1.47676467	     -7.49461886	      2.16265619	      4.72371969	      0.08244446	      3.43872222	    -12.86485135	     -7.49244758	     -2.75743696	     -7.32067083	    -13.11705351	      1.20713455	      0.02106847	      6.93747908	     -2.21871142	     -7.49244758	      0.82206011	      1.06251640	      3.59879984	     32.45035682	      5.57717368	     69.58540593	    120.72357301	     91.87306202	     37.03974211	      3.00994455	     61.19644005	    126.19059609	     69.85569869
      0.21666670	      0.96304018	     -0.02803215	      4.31352848	      0.60347255	      0.89151361	     -0.00843176	      1.13342942	     -7.47192308	      1.95847988	      4.46430283	      0.07791678	      3.42198354	    -12.69981735	     -7.49578693	     -2.93038012	     -7.35116042	    -12.96119056	      1.11752162	      0.01950443	      6.62036892	     -2.66477823	     -7.49578693	      0.62036994	      1.16830639	      3.31789445	     32.80736044	      5.63935642	     70.04952498	    120.86785767	     84.86080665	     37.15104302	      3.11863992	     61.20058845	    126.42254927	     67.42916934
      0.23333330	      0.80467196	     -0.05957281	      4.08048222	      0.60362816	      0.89189686	     -0.00810899	      1.31491017	     -7.43586021	      2.30617447	      4.33998404	      0.07574701	      3.05896463	    -13.12257989	     -7.49798728	     -2.80790570	     -7.34555008	    -13.80506089	      1.02234037	      0.01784321	      6.60674449	     -2.04308647	     -7.49798728	      0.77948379	      1.18393585	      3.64037982	     32.70561385	      5.56403462	     69.64237043	    121.15782615	     90.35717766	     37.20038802	      3.35326218	     61.36153965	    126.43369204	     68.59502701
      0.25000000	      0.80315724	     -0.07012445	      4.12219146	      0.60341233	      0.89191337	     -0.00836234	      1.17781985	     -7.44248983	      2.17985921	      4.05000879	      0.07068599	      2.81143631	    -13.15425511	     -7.49918267	     -2.79748934	     -7.31985469	    -13.97174432	      0.91802382	      0.01602254	      6.40099255	     -2.13502651	     -7.49918267	      0.79152896	      1.22029705	      3.65697172	     32.73010067	      5.52902269	     69.65226694	    121.37682717	     90.20397807	     37.10820545	      3.33655885	     61.38292810	    126.56044084	     68.26993267
      0.26666670	      0.75671697	     -0.09051877	      4.07809903	      0.60342957	      0.89226243	     -0.00833254	      1.17014356	     -7.41963072	      2.17263711	      3.85063618	      0.06720628	      2.63902082	    -13.12150028	     -7.49979379	     -2.77648669	     -7.30957465	    -14.37462448	      0.79845972	      0.01393575	      6.38153349	     -1.81976230	     -7.49979379	      0.80663673	      1.23792088	      3.64492203	     32.64463137	      5.47686306	     69.95937857	    121.88642842	     89.58609369	     37.04284490	      3.40758579	     61.53241692	    126.60955697	     68.03800876
      0.28333330	      0.68883353	     -0.10636543	      4.03967229	      0.60338326	      0.89201948	     -0.00840009	      1.31617319	     -7.42777983	      2.16928743	      3.87628627	      0.06765396	      2.60418831	    -13.19663880	     -7.49991323	     -2.69014114	     -7.27665940	    -14.53762227	      0.73222631	      0.01277976	      6.39198286	     -1.72081208	     -7.49991323	      0.86194348	      1.28208092	      3.74363518	     32.38023379	      5.52899172	     69.95899146	    122.11126707	     89.16938030	     36.92177361	      3.39872696	     61.46793449	    126.77889266	     67.77347208
      0.30000000	      0.70488501	     -0.11037396	      4.03736145	      0.60350053	      0.89246502	     -0.00829026	      1.31408963	     -7.42759587	      2.17506366	      3.89490997	      0.06797900	      2.73123509	    -13.09634194	     -7.49997654	     -2.69030981	     -7.24997473	    -14.71898534	      0.68869199	      0.01201994	      6.43658593	     -1.47824404	     -7.49997654	      0.78842283	      1.32525735	      3.68254972	     32.18880078	      5.60283726	     70.00150521	    122.25444085	     88.57758503	     36.91675934	      3.41857674	     61.33381847	    126.87997563	     67.46713832
